# MagicaVoxel @ Ephtracy

# group
g container1

# material
mtllib container1.mtl
usemtl palette

# normals
vn -1 0 0
vn 1 0 0
vn 0 0 1
vn 0 0 -1
vn 0 -1 0
vn 0 1 0

# texcoords
vt 0.958984 0.5
vt 0.970703 0.5
vt 0.974609 0.5
vt 0.994141 0.5

# verts
v -9 0 15
v -9 0 12
v -9 0 -12
v -9 0 -15
v -9 1 16
v -9 1 15
v -9 1 12
v -9 1 11
v -9 1 -11
v -9 1 -12
v -9 1 -15
v -9 1 -16
v -9 2 17
v -9 2 16
v -9 2 14
v -9 2 13
v -9 2 11
v -9 2 10
v -9 2 -10
v -9 2 -11
v -9 2 -13
v -9 2 -14
v -9 2 -16
v -9 2 -17
v -9 3 15
v -9 3 14
v -9 3 13
v -9 3 12
v -9 3 -12
v -9 3 -13
v -9 3 -14
v -9 3 -15
v -9 4 15
v -9 4 14
v -9 4 13
v -9 4 12
v -9 4 -12
v -9 4 -13
v -9 4 -14
v -9 4 -15
v -9 5 17
v -9 5 16
v -9 5 14
v -9 5 13
v -9 5 11
v -9 5 10
v -9 5 -10
v -9 5 -11
v -9 5 -13
v -9 5 -14
v -9 5 -16
v -9 5 -17
v -9 6 16
v -9 6 15
v -9 6 12
v -9 6 11
v -9 6 -11
v -9 6 -12
v -9 6 -15
v -9 6 -16
v -9 7 19
v -9 7 15
v -9 7 12
v -9 7 -12
v -9 7 -15
v -9 7 -19
v -9 8 18
v -9 8 -18
v -9 23 18
v -9 23 -18
v -9 24 19
v -9 24 -19
v 7 0 15
v 7 0 12
v 7 0 -12
v 7 0 -15
v 7 1 16
v 7 1 15
v 7 1 12
v 7 1 11
v 7 1 -11
v 7 1 -12
v 7 1 -15
v 7 1 -16
v 7 2 17
v 7 2 16
v 7 2 14
v 7 2 13
v 7 2 11
v 7 2 10
v 7 2 -10
v 7 2 -11
v 7 2 -13
v 7 2 -14
v 7 2 -16
v 7 2 -17
v 7 3 15
v 7 3 14
v 7 3 13
v 7 3 12
v 7 3 -12
v 7 3 -13
v 7 3 -14
v 7 3 -15
v 7 4 15
v 7 4 14
v 7 4 13
v 7 4 12
v 7 4 -12
v 7 4 -13
v 7 4 -14
v 7 4 -15
v 7 5 17
v 7 5 16
v 7 5 14
v 7 5 13
v 7 5 11
v 7 5 10
v 7 5 -10
v 7 5 -11
v 7 5 -13
v 7 5 -14
v 7 5 -16
v 7 5 -17
v 7 6 16
v 7 6 15
v 7 6 12
v 7 6 11
v 7 6 -11
v 7 6 -12
v 7 6 -15
v 7 6 -16
v 7 7 15
v 7 7 12
v 7 7 -12
v 7 7 -15
v -7 0 15
v -7 0 12
v -7 0 -12
v -7 0 -15
v -7 1 16
v -7 1 15
v -7 1 12
v -7 1 11
v -7 1 -11
v -7 1 -12
v -7 1 -15
v -7 1 -16
v -7 2 17
v -7 2 16
v -7 2 14
v -7 2 13
v -7 2 11
v -7 2 10
v -7 2 -10
v -7 2 -11
v -7 2 -13
v -7 2 -14
v -7 2 -16
v -7 2 -17
v -7 3 15
v -7 3 14
v -7 3 13
v -7 3 12
v -7 3 -12
v -7 3 -13
v -7 3 -14
v -7 3 -15
v -7 4 15
v -7 4 14
v -7 4 13
v -7 4 12
v -7 4 -12
v -7 4 -13
v -7 4 -14
v -7 4 -15
v -7 5 17
v -7 5 16
v -7 5 14
v -7 5 13
v -7 5 11
v -7 5 10
v -7 5 -10
v -7 5 -11
v -7 5 -13
v -7 5 -14
v -7 5 -16
v -7 5 -17
v -7 6 16
v -7 6 15
v -7 6 12
v -7 6 11
v -7 6 -11
v -7 6 -12
v -7 6 -15
v -7 6 -16
v -7 7 15
v -7 7 12
v -7 7 -12
v -7 7 -15
v 9 0 15
v 9 0 12
v 9 0 -12
v 9 0 -15
v 9 1 16
v 9 1 15
v 9 1 12
v 9 1 11
v 9 1 -11
v 9 1 -12
v 9 1 -15
v 9 1 -16
v 9 2 17
v 9 2 16
v 9 2 14
v 9 2 13
v 9 2 11
v 9 2 10
v 9 2 -10
v 9 2 -11
v 9 2 -13
v 9 2 -14
v 9 2 -16
v 9 2 -17
v 9 3 15
v 9 3 14
v 9 3 13
v 9 3 12
v 9 3 -12
v 9 3 -13
v 9 3 -14
v 9 3 -15
v 9 4 15
v 9 4 14
v 9 4 13
v 9 4 12
v 9 4 -12
v 9 4 -13
v 9 4 -14
v 9 4 -15
v 9 5 17
v 9 5 16
v 9 5 14
v 9 5 13
v 9 5 11
v 9 5 10
v 9 5 -10
v 9 5 -11
v 9 5 -13
v 9 5 -14
v 9 5 -16
v 9 5 -17
v 9 6 16
v 9 6 15
v 9 6 12
v 9 6 11
v 9 6 -11
v 9 6 -12
v 9 6 -15
v 9 6 -16
v 9 7 19
v 9 7 15
v 9 7 12
v 9 7 -12
v 9 7 -15
v 9 7 -19
v 9 8 18
v 9 8 -18
v 9 23 18
v 9 23 -18
v 9 24 19
v 9 24 -19
v -9 7 19
v -9 24 19
v -8 8 19
v -8 23 19
v 8 8 19
v 8 23 19
v 9 7 19
v 9 24 19
v -9 2 17
v -9 5 17
v -7 2 17
v -7 5 17
v 7 2 17
v 7 5 17
v 9 2 17
v 9 5 17
v -9 1 16
v -9 2 16
v -9 5 16
v -9 6 16
v -7 1 16
v -7 2 16
v -7 5 16
v -7 6 16
v 7 1 16
v 7 2 16
v 7 5 16
v 7 6 16
v 9 1 16
v 9 2 16
v 9 5 16
v 9 6 16
v -9 0 15
v -9 1 15
v -9 6 15
v -9 7 15
v -7 0 15
v -7 1 15
v -7 6 15
v -7 7 15
v 7 0 15
v 7 1 15
v 7 6 15
v 7 7 15
v 9 0 15
v 9 1 15
v 9 6 15
v 9 7 15
v -9 2 -10
v -9 5 -10
v -7 2 -10
v -7 5 -10
v 7 2 -10
v 7 5 -10
v 9 2 -10
v 9 5 -10
v -9 1 -11
v -9 2 -11
v -9 5 -11
v -9 6 -11
v -7 1 -11
v -7 2 -11
v -7 5 -11
v -7 6 -11
v 7 1 -11
v 7 2 -11
v 7 5 -11
v 7 6 -11
v 9 1 -11
v 9 2 -11
v 9 5 -11
v 9 6 -11
v -9 0 -12
v -9 1 -12
v -9 6 -12
v -9 7 -12
v -7 0 -12
v -7 1 -12
v -7 6 -12
v -7 7 -12
v 7 0 -12
v 7 1 -12
v 7 6 -12
v 7 7 -12
v 9 0 -12
v 9 1 -12
v 9 6 -12
v 9 7 -12
v -9 0 12
v -9 1 12
v -9 6 12
v -9 7 12
v -7 0 12
v -7 1 12
v -7 6 12
v -7 7 12
v 7 0 12
v 7 1 12
v 7 6 12
v 7 7 12
v 9 0 12
v 9 1 12
v 9 6 12
v 9 7 12
v -9 1 11
v -9 2 11
v -9 5 11
v -9 6 11
v -7 1 11
v -7 2 11
v -7 5 11
v -7 6 11
v 7 1 11
v 7 2 11
v 7 5 11
v 7 6 11
v 9 1 11
v 9 2 11
v 9 5 11
v 9 6 11
v -9 2 10
v -9 5 10
v -7 2 10
v -7 5 10
v 7 2 10
v 7 5 10
v 9 2 10
v 9 5 10
v -9 0 -15
v -9 1 -15
v -9 6 -15
v -9 7 -15
v -7 0 -15
v -7 1 -15
v -7 6 -15
v -7 7 -15
v 7 0 -15
v 7 1 -15
v 7 6 -15
v 7 7 -15
v 9 0 -15
v 9 1 -15
v 9 6 -15
v 9 7 -15
v -9 1 -16
v -9 2 -16
v -9 5 -16
v -9 6 -16
v -7 1 -16
v -7 2 -16
v -7 5 -16
v -7 6 -16
v 7 1 -16
v 7 2 -16
v 7 5 -16
v 7 6 -16
v 9 1 -16
v 9 2 -16
v 9 5 -16
v 9 6 -16
v -9 2 -17
v -9 5 -17
v -7 2 -17
v -7 5 -17
v 7 2 -17
v 7 5 -17
v 9 2 -17
v 9 5 -17
v -9 7 -19
v -9 24 -19
v -8 8 -19
v -8 23 -19
v -1 8 -19
v -1 23 -19
v 1 8 -19
v 1 23 -19
v 8 8 -19
v 8 23 -19
v 9 7 -19
v 9 24 -19
v -9 0 15
v -7 0 15
v 7 0 15
v 9 0 15
v -9 0 12
v -7 0 12
v 7 0 12
v 9 0 12
v -9 0 -12
v -7 0 -12
v 7 0 -12
v 9 0 -12
v -9 0 -15
v -7 0 -15
v 7 0 -15
v 9 0 -15
v -9 1 16
v -7 1 16
v 7 1 16
v 9 1 16
v -9 1 15
v -7 1 15
v 7 1 15
v 9 1 15
v -9 1 12
v -7 1 12
v 7 1 12
v 9 1 12
v -9 1 11
v -7 1 11
v 7 1 11
v 9 1 11
v -9 1 -11
v -7 1 -11
v 7 1 -11
v 9 1 -11
v -9 1 -12
v -7 1 -12
v 7 1 -12
v 9 1 -12
v -9 1 -15
v -7 1 -15
v 7 1 -15
v 9 1 -15
v -9 1 -16
v -7 1 -16
v 7 1 -16
v 9 1 -16
v -9 2 17
v -7 2 17
v 7 2 17
v 9 2 17
v -9 2 16
v -7 2 16
v 7 2 16
v 9 2 16
v -9 2 11
v -7 2 11
v 7 2 11
v 9 2 11
v -9 2 10
v -7 2 10
v 7 2 10
v 9 2 10
v -9 2 -10
v -7 2 -10
v 7 2 -10
v 9 2 -10
v -9 2 -11
v -7 2 -11
v 7 2 -11
v 9 2 -11
v -9 2 -16
v -7 2 -16
v 7 2 -16
v 9 2 -16
v -9 2 -17
v -7 2 -17
v 7 2 -17
v 9 2 -17
v -9 7 19
v 9 7 19
v -9 7 15
v -7 7 15
v 7 7 15
v 9 7 15
v -9 7 12
v -7 7 12
v 7 7 12
v 9 7 12
v -9 7 -12
v -7 7 -12
v 7 7 -12
v 9 7 -12
v -9 7 -15
v -7 7 -15
v 7 7 -15
v 9 7 -15
v -9 7 -19
v 9 7 -19
v -9 5 17
v -7 5 17
v 7 5 17
v 9 5 17
v -9 5 16
v -7 5 16
v 7 5 16
v 9 5 16
v -9 5 11
v -7 5 11
v 7 5 11
v 9 5 11
v -9 5 10
v -7 5 10
v 7 5 10
v 9 5 10
v -9 5 -10
v -7 5 -10
v 7 5 -10
v 9 5 -10
v -9 5 -11
v -7 5 -11
v 7 5 -11
v 9 5 -11
v -9 5 -16
v -7 5 -16
v 7 5 -16
v 9 5 -16
v -9 5 -17
v -7 5 -17
v 7 5 -17
v 9 5 -17
v -9 6 16
v -7 6 16
v 7 6 16
v 9 6 16
v -9 6 15
v -7 6 15
v 7 6 15
v 9 6 15
v -9 6 12
v -7 6 12
v 7 6 12
v 9 6 12
v -9 6 11
v -7 6 11
v 7 6 11
v 9 6 11
v -9 6 -11
v -7 6 -11
v 7 6 -11
v 9 6 -11
v -9 6 -12
v -7 6 -12
v 7 6 -12
v 9 6 -12
v -9 6 -15
v -7 6 -15
v 7 6 -15
v 9 6 -15
v -9 6 -16
v -7 6 -16
v 7 6 -16
v 9 6 -16
v -9 24 19
v 9 24 19
v -8 24 18
v 8 24 18
v -8 24 -18
v 8 24 -18
v -9 24 -19
v 9 24 -19

# faces
f 6/4/1 2/4/1 1/4/1
f 7/4/1 2/4/1 6/4/1
f 10/4/1 4/4/1 3/4/1
f 11/4/1 4/4/1 10/4/1
f 14/4/1 8/4/1 7/4/1
f 14/4/1 6/4/1 5/4/1
f 14/4/1 7/4/1 6/4/1
f 15/4/1 8/4/1 14/4/1
f 16/4/1 8/4/1 15/4/1
f 17/4/1 8/4/1 16/4/1
f 20/4/1 12/4/1 11/4/1
f 20/4/1 11/4/1 10/4/1
f 20/4/1 10/4/1 9/4/1
f 21/4/1 12/4/1 20/4/1
f 22/4/1 12/4/1 21/4/1
f 23/4/1 12/4/1 22/4/1
f 25/4/1 14/4/1 13/4/1
f 25/4/1 15/4/1 14/4/1
f 26/2/1 16/2/1 15/2/1
f 26/4/1 15/4/1 25/4/1
f 27/4/1 18/4/1 17/4/1
f 27/2/1 16/2/1 26/2/1
f 27/4/1 17/4/1 16/4/1
f 28/4/1 18/4/1 27/4/1
f 29/4/1 20/4/1 19/4/1
f 29/4/1 21/4/1 20/4/1
f 30/2/1 22/2/1 21/2/1
f 30/4/1 21/4/1 29/4/1
f 31/4/1 24/4/1 23/4/1
f 31/2/1 22/2/1 30/2/1
f 31/4/1 23/4/1 22/4/1
f 32/4/1 24/4/1 31/4/1
f 33/2/1 26/2/1 25/2/1
f 33/4/1 25/4/1 13/4/1
f 33/2/1 27/2/1 26/2/1
f 33/2/1 28/2/1 27/2/1
f 34/2/1 28/2/1 33/2/1
f 35/2/1 28/2/1 34/2/1
f 36/4/1 18/4/1 28/4/1
f 36/2/1 28/2/1 35/2/1
f 37/4/1 29/4/1 19/4/1
f 37/2/1 32/2/1 31/2/1
f 37/2/1 30/2/1 29/2/1
f 37/2/1 31/2/1 30/2/1
f 38/2/1 32/2/1 37/2/1
f 39/2/1 32/2/1 38/2/1
f 40/4/1 24/4/1 32/4/1
f 40/2/1 32/2/1 39/2/1
f 41/4/1 34/4/1 33/4/1
f 41/4/1 33/4/1 13/4/1
f 42/4/1 34/4/1 41/4/1
f 43/2/1 35/2/1 34/2/1
f 43/4/1 34/4/1 42/4/1
f 44/4/1 36/4/1 35/4/1
f 44/2/1 35/2/1 43/2/1
f 45/4/1 18/4/1 36/4/1
f 45/4/1 36/4/1 44/4/1
f 46/4/1 18/4/1 45/4/1
f 47/4/1 37/4/1 19/4/1
f 47/4/1 38/4/1 37/4/1
f 48/4/1 38/4/1 47/4/1
f 49/2/1 39/2/1 38/2/1
f 49/4/1 38/4/1 48/4/1
f 50/4/1 40/4/1 39/4/1
f 50/2/1 39/2/1 49/2/1
f 51/4/1 24/4/1 40/4/1
f 51/4/1 40/4/1 50/4/1
f 52/4/1 24/4/1 51/4/1
f 53/4/1 44/4/1 43/4/1
f 53/4/1 43/4/1 42/4/1
f 53/4/1 45/4/1 44/4/1
f 54/4/1 45/4/1 53/4/1
f 55/4/1 45/4/1 54/4/1
f 56/4/1 45/4/1 55/4/1
f 57/4/1 51/4/1 50/4/1
f 57/4/1 50/4/1 49/4/1
f 57/4/1 49/4/1 48/4/1
f 58/4/1 51/4/1 57/4/1
f 59/4/1 51/4/1 58/4/1
f 60/4/1 51/4/1 59/4/1
f 62/4/1 55/4/1 54/4/1
f 63/4/1 55/4/1 62/4/1
f 64/4/1 59/4/1 58/4/1
f 65/4/1 59/4/1 64/4/1
f 67/3/1 65/3/1 64/3/1
f 67/3/1 66/3/1 65/3/1
f 67/3/1 64/3/1 63/3/1
f 67/3/1 62/3/1 61/3/1
f 67/3/1 63/3/1 62/3/1
f 68/3/1 66/3/1 67/3/1
f 69/3/1 67/3/1 61/3/1
f 69/1/1 68/1/1 67/1/1
f 70/3/1 66/3/1 68/3/1
f 70/1/1 68/1/1 69/1/1
f 71/3/1 69/3/1 61/3/1
f 71/3/1 70/3/1 69/3/1
f 72/3/1 66/3/1 70/3/1
f 72/3/1 70/3/1 71/3/1
f 78/4/1 74/4/1 73/4/1
f 79/4/1 74/4/1 78/4/1
f 82/4/1 76/4/1 75/4/1
f 83/4/1 76/4/1 82/4/1
f 86/4/1 80/4/1 79/4/1
f 86/4/1 78/4/1 77/4/1
f 86/4/1 79/4/1 78/4/1
f 87/4/1 80/4/1 86/4/1
f 88/4/1 80/4/1 87/4/1
f 89/4/1 80/4/1 88/4/1
f 92/4/1 84/4/1 83/4/1
f 92/4/1 83/4/1 82/4/1
f 92/4/1 82/4/1 81/4/1
f 93/4/1 84/4/1 92/4/1
f 94/4/1 84/4/1 93/4/1
f 95/4/1 84/4/1 94/4/1
f 97/4/1 86/4/1 85/4/1
f 97/4/1 87/4/1 86/4/1
f 98/2/1 88/2/1 87/2/1
f 98/4/1 87/4/1 97/4/1
f 99/4/1 90/4/1 89/4/1
f 99/2/1 88/2/1 98/2/1
f 99/4/1 89/4/1 88/4/1
f 100/4/1 90/4/1 99/4/1
f 101/4/1 92/4/1 91/4/1
f 101/4/1 93/4/1 92/4/1
f 102/2/1 94/2/1 93/2/1
f 102/4/1 93/4/1 101/4/1
f 103/4/1 96/4/1 95/4/1
f 103/2/1 94/2/1 102/2/1
f 103/4/1 95/4/1 94/4/1
f 104/4/1 96/4/1 103/4/1
f 105/2/1 98/2/1 97/2/1
f 105/4/1 97/4/1 85/4/1
f 105/2/1 99/2/1 98/2/1
f 105/2/1 100/2/1 99/2/1
f 106/2/1 100/2/1 105/2/1
f 107/2/1 100/2/1 106/2/1
f 108/4/1 90/4/1 100/4/1
f 108/2/1 100/2/1 107/2/1
f 109/4/1 101/4/1 91/4/1
f 109/2/1 104/2/1 103/2/1
f 109/2/1 102/2/1 101/2/1
f 109/2/1 103/2/1 102/2/1
f 110/2/1 104/2/1 109/2/1
f 111/2/1 104/2/1 110/2/1
f 112/4/1 96/4/1 104/4/1
f 112/2/1 104/2/1 111/2/1
f 113/4/1 106/4/1 105/4/1
f 113/4/1 105/4/1 85/4/1
f 114/4/1 106/4/1 113/4/1
f 115/2/1 107/2/1 106/2/1
f 115/4/1 106/4/1 114/4/1
f 116/4/1 108/4/1 107/4/1
f 116/2/1 107/2/1 115/2/1
f 117/4/1 90/4/1 108/4/1
f 117/4/1 108/4/1 116/4/1
f 118/4/1 90/4/1 117/4/1
f 119/4/1 109/4/1 91/4/1
f 119/4/1 110/4/1 109/4/1
f 120/4/1 110/4/1 119/4/1
f 121/2/1 111/2/1 110/2/1
f 121/4/1 110/4/1 120/4/1
f 122/4/1 112/4/1 111/4/1
f 122/2/1 111/2/1 121/2/1
f 123/4/1 96/4/1 112/4/1
f 123/4/1 112/4/1 122/4/1
f 124/4/1 96/4/1 123/4/1
f 125/4/1 116/4/1 115/4/1
f 125/4/1 115/4/1 114/4/1
f 125/4/1 117/4/1 116/4/1
f 126/4/1 117/4/1 125/4/1
f 127/4/1 117/4/1 126/4/1
f 128/4/1 117/4/1 127/4/1
f 129/4/1 123/4/1 122/4/1
f 129/4/1 122/4/1 121/4/1
f 129/4/1 121/4/1 120/4/1
f 130/4/1 123/4/1 129/4/1
f 131/4/1 123/4/1 130/4/1
f 132/4/1 123/4/1 131/4/1
f 133/4/1 127/4/1 126/4/1
f 134/4/1 127/4/1 133/4/1
f 135/4/1 131/4/1 130/4/1
f 136/4/1 131/4/1 135/4/1
f 137/4/2 138/4/2 142/4/2
f 142/4/2 138/4/2 143/4/2
f 139/4/2 140/4/2 146/4/2
f 146/4/2 140/4/2 147/4/2
f 143/4/2 144/4/2 150/4/2
f 141/4/2 142/4/2 150/4/2
f 142/4/2 143/4/2 150/4/2
f 150/4/2 144/4/2 151/4/2
f 151/4/2 144/4/2 152/4/2
f 152/4/2 144/4/2 153/4/2
f 147/4/2 148/4/2 156/4/2
f 146/4/2 147/4/2 156/4/2
f 145/4/2 146/4/2 156/4/2
f 156/4/2 148/4/2 157/4/2
f 157/4/2 148/4/2 158/4/2
f 158/4/2 148/4/2 159/4/2
f 149/4/2 150/4/2 161/4/2
f 150/4/2 151/4/2 161/4/2
f 151/2/2 152/2/2 162/2/2
f 161/4/2 151/4/2 162/4/2
f 153/4/2 154/4/2 163/4/2
f 162/2/2 152/2/2 163/2/2
f 152/4/2 153/4/2 163/4/2
f 163/4/2 154/4/2 164/4/2
f 155/4/2 156/4/2 165/4/2
f 156/4/2 157/4/2 165/4/2
f 157/2/2 158/2/2 166/2/2
f 165/4/2 157/4/2 166/4/2
f 159/4/2 160/4/2 167/4/2
f 166/2/2 158/2/2 167/2/2
f 158/4/2 159/4/2 167/4/2
f 167/4/2 160/4/2 168/4/2
f 161/2/2 162/2/2 169/2/2
f 149/4/2 161/4/2 169/4/2
f 162/2/2 163/2/2 169/2/2
f 163/2/2 164/2/2 169/2/2
f 169/2/2 164/2/2 170/2/2
f 170/2/2 164/2/2 171/2/2
f 164/4/2 154/4/2 172/4/2
f 171/2/2 164/2/2 172/2/2
f 155/4/2 165/4/2 173/4/2
f 167/2/2 168/2/2 173/2/2
f 165/2/2 166/2/2 173/2/2
f 166/2/2 167/2/2 173/2/2
f 173/2/2 168/2/2 174/2/2
f 174/2/2 168/2/2 175/2/2
f 168/4/2 160/4/2 176/4/2
f 175/2/2 168/2/2 176/2/2
f 169/4/2 170/4/2 177/4/2
f 149/4/2 169/4/2 177/4/2
f 177/4/2 170/4/2 178/4/2
f 170/2/2 171/2/2 179/2/2
f 178/4/2 170/4/2 179/4/2
f 171/4/2 172/4/2 180/4/2
f 179/2/2 171/2/2 180/2/2
f 172/4/2 154/4/2 181/4/2
f 180/4/2 172/4/2 181/4/2
f 181/4/2 154/4/2 182/4/2
f 155/4/2 173/4/2 183/4/2
f 173/4/2 174/4/2 183/4/2
f 183/4/2 174/4/2 184/4/2
f 174/2/2 175/2/2 185/2/2
f 184/4/2 174/4/2 185/4/2
f 175/4/2 176/4/2 186/4/2
f 185/2/2 175/2/2 186/2/2
f 176/4/2 160/4/2 187/4/2
f 186/4/2 176/4/2 187/4/2
f 187/4/2 160/4/2 188/4/2
f 179/4/2 180/4/2 189/4/2
f 178/4/2 179/4/2 189/4/2
f 180/4/2 181/4/2 189/4/2
f 189/4/2 181/4/2 190/4/2
f 190/4/2 181/4/2 191/4/2
f 191/4/2 181/4/2 192/4/2
f 186/4/2 187/4/2 193/4/2
f 185/4/2 186/4/2 193/4/2
f 184/4/2 185/4/2 193/4/2
f 193/4/2 187/4/2 194/4/2
f 194/4/2 187/4/2 195/4/2
f 195/4/2 187/4/2 196/4/2
f 190/4/2 191/4/2 197/4/2
f 197/4/2 191/4/2 198/4/2
f 194/4/2 195/4/2 199/4/2
f 199/4/2 195/4/2 200/4/2
f 201/4/2 202/4/2 206/4/2
f 206/4/2 202/4/2 207/4/2
f 203/4/2 204/4/2 210/4/2
f 210/4/2 204/4/2 211/4/2
f 207/4/2 208/4/2 214/4/2
f 205/4/2 206/4/2 214/4/2
f 206/4/2 207/4/2 214/4/2
f 214/4/2 208/4/2 215/4/2
f 215/4/2 208/4/2 216/4/2
f 216/4/2 208/4/2 217/4/2
f 211/4/2 212/4/2 220/4/2
f 210/4/2 211/4/2 220/4/2
f 209/4/2 210/4/2 220/4/2
f 220/4/2 212/4/2 221/4/2
f 221/4/2 212/4/2 222/4/2
f 222/4/2 212/4/2 223/4/2
f 213/4/2 214/4/2 225/4/2
f 214/4/2 215/4/2 225/4/2
f 215/2/2 216/2/2 226/2/2
f 225/4/2 215/4/2 226/4/2
f 217/4/2 218/4/2 227/4/2
f 226/2/2 216/2/2 227/2/2
f 216/4/2 217/4/2 227/4/2
f 227/4/2 218/4/2 228/4/2
f 219/4/2 220/4/2 229/4/2
f 220/4/2 221/4/2 229/4/2
f 221/2/2 222/2/2 230/2/2
f 229/4/2 221/4/2 230/4/2
f 223/4/2 224/4/2 231/4/2
f 230/2/2 222/2/2 231/2/2
f 222/4/2 223/4/2 231/4/2
f 231/4/2 224/4/2 232/4/2
f 225/2/2 226/2/2 233/2/2
f 213/4/2 225/4/2 233/4/2
f 226/2/2 227/2/2 233/2/2
f 227/2/2 228/2/2 233/2/2
f 233/2/2 228/2/2 234/2/2
f 234/2/2 228/2/2 235/2/2
f 228/4/2 218/4/2 236/4/2
f 235/2/2 228/2/2 236/2/2
f 219/4/2 229/4/2 237/4/2
f 231/2/2 232/2/2 237/2/2
f 229/2/2 230/2/2 237/2/2
f 230/2/2 231/2/2 237/2/2
f 237/2/2 232/2/2 238/2/2
f 238/2/2 232/2/2 239/2/2
f 232/4/2 224/4/2 240/4/2
f 239/2/2 232/2/2 240/2/2
f 233/4/2 234/4/2 241/4/2
f 213/4/2 233/4/2 241/4/2
f 241/4/2 234/4/2 242/4/2
f 234/2/2 235/2/2 243/2/2
f 242/4/2 234/4/2 243/4/2
f 235/4/2 236/4/2 244/4/2
f 243/2/2 235/2/2 244/2/2
f 236/4/2 218/4/2 245/4/2
f 244/4/2 236/4/2 245/4/2
f 245/4/2 218/4/2 246/4/2
f 219/4/2 237/4/2 247/4/2
f 237/4/2 238/4/2 247/4/2
f 247/4/2 238/4/2 248/4/2
f 238/2/2 239/2/2 249/2/2
f 248/4/2 238/4/2 249/4/2
f 239/4/2 240/4/2 250/4/2
f 249/2/2 239/2/2 250/2/2
f 240/4/2 224/4/2 251/4/2
f 250/4/2 240/4/2 251/4/2
f 251/4/2 224/4/2 252/4/2
f 243/4/2 244/4/2 253/4/2
f 242/4/2 243/4/2 253/4/2
f 244/4/2 245/4/2 253/4/2
f 253/4/2 245/4/2 254/4/2
f 254/4/2 245/4/2 255/4/2
f 255/4/2 245/4/2 256/4/2
f 250/4/2 251/4/2 257/4/2
f 249/4/2 250/4/2 257/4/2
f 248/4/2 249/4/2 257/4/2
f 257/4/2 251/4/2 258/4/2
f 258/4/2 251/4/2 259/4/2
f 259/4/2 251/4/2 260/4/2
f 254/4/2 255/4/2 262/4/2
f 262/4/2 255/4/2 263/4/2
f 258/4/2 259/4/2 264/4/2
f 264/4/2 259/4/2 265/4/2
f 264/3/2 265/3/2 267/3/2
f 265/3/2 266/3/2 267/3/2
f 263/3/2 264/3/2 267/3/2
f 261/3/2 262/3/2 267/3/2
f 262/3/2 263/3/2 267/3/2
f 267/3/2 266/3/2 268/3/2
f 261/3/2 267/3/2 269/3/2
f 267/1/2 268/1/2 269/1/2
f 268/3/2 266/3/2 270/3/2
f 269/1/2 268/1/2 270/1/2
f 261/3/2 269/3/2 271/3/2
f 269/3/2 270/3/2 271/3/2
f 270/3/2 266/3/2 272/3/2
f 271/3/2 270/3/2 272/3/2
f 275/3/3 274/3/3 273/3/3
f 276/3/3 274/3/3 275/3/3
f 277/3/3 275/3/3 273/3/3
f 277/1/3 276/1/3 275/1/3
f 278/3/3 274/3/3 276/3/3
f 278/1/3 276/1/3 277/1/3
f 279/3/3 277/3/3 273/3/3
f 279/3/3 278/3/3 277/3/3
f 280/3/3 274/3/3 278/3/3
f 280/3/3 278/3/3 279/3/3
f 283/4/3 282/4/3 281/4/3
f 284/4/3 282/4/3 283/4/3
f 287/4/3 286/4/3 285/4/3
f 288/4/3 286/4/3 287/4/3
f 293/4/3 290/4/3 289/4/3
f 294/4/3 290/4/3 293/4/3
f 295/4/3 292/4/3 291/4/3
f 296/4/3 292/4/3 295/4/3
f 301/4/3 298/4/3 297/4/3
f 302/4/3 298/4/3 301/4/3
f 303/4/3 300/4/3 299/4/3
f 304/4/3 300/4/3 303/4/3
f 309/4/3 306/4/3 305/4/3
f 310/4/3 306/4/3 309/4/3
f 311/4/3 308/4/3 307/4/3
f 312/4/3 308/4/3 311/4/3
f 317/4/3 314/4/3 313/4/3
f 318/4/3 314/4/3 317/4/3
f 319/4/3 316/4/3 315/4/3
f 320/4/3 316/4/3 319/4/3
f 323/4/3 322/4/3 321/4/3
f 324/4/3 322/4/3 323/4/3
f 327/4/3 326/4/3 325/4/3
f 328/4/3 326/4/3 327/4/3
f 333/4/3 330/4/3 329/4/3
f 334/4/3 330/4/3 333/4/3
f 335/4/3 332/4/3 331/4/3
f 336/4/3 332/4/3 335/4/3
f 341/4/3 338/4/3 337/4/3
f 342/4/3 338/4/3 341/4/3
f 343/4/3 340/4/3 339/4/3
f 344/4/3 340/4/3 343/4/3
f 349/4/3 346/4/3 345/4/3
f 350/4/3 346/4/3 349/4/3
f 351/4/3 348/4/3 347/4/3
f 352/4/3 348/4/3 351/4/3
f 357/4/3 354/4/3 353/4/3
f 358/4/3 354/4/3 357/4/3
f 359/4/3 356/4/3 355/4/3
f 360/4/3 356/4/3 359/4/3
f 361/4/4 362/4/4 365/4/4
f 365/4/4 362/4/4 366/4/4
f 363/4/4 364/4/4 367/4/4
f 367/4/4 364/4/4 368/4/4
f 369/4/4 370/4/4 373/4/4
f 373/4/4 370/4/4 374/4/4
f 371/4/4 372/4/4 375/4/4
f 375/4/4 372/4/4 376/4/4
f 377/4/4 378/4/4 381/4/4
f 381/4/4 378/4/4 382/4/4
f 379/4/4 380/4/4 383/4/4
f 383/4/4 380/4/4 384/4/4
f 385/4/4 386/4/4 389/4/4
f 389/4/4 386/4/4 390/4/4
f 387/4/4 388/4/4 391/4/4
f 391/4/4 388/4/4 392/4/4
f 393/4/4 394/4/4 395/4/4
f 395/4/4 394/4/4 396/4/4
f 397/4/4 398/4/4 399/4/4
f 399/4/4 398/4/4 400/4/4
f 401/4/4 402/4/4 405/4/4
f 405/4/4 402/4/4 406/4/4
f 403/4/4 404/4/4 407/4/4
f 407/4/4 404/4/4 408/4/4
f 409/4/4 410/4/4 413/4/4
f 413/4/4 410/4/4 414/4/4
f 411/4/4 412/4/4 415/4/4
f 415/4/4 412/4/4 416/4/4
f 417/4/4 418/4/4 421/4/4
f 421/4/4 418/4/4 422/4/4
f 419/4/4 420/4/4 423/4/4
f 423/4/4 420/4/4 424/4/4
f 425/4/4 426/4/4 429/4/4
f 429/4/4 426/4/4 430/4/4
f 427/4/4 428/4/4 431/4/4
f 431/4/4 428/4/4 432/4/4
f 433/4/4 434/4/4 435/4/4
f 435/4/4 434/4/4 436/4/4
f 437/4/4 438/4/4 439/4/4
f 439/4/4 438/4/4 440/4/4
f 441/3/4 442/3/4 443/3/4
f 443/3/4 442/3/4 444/3/4
f 441/3/4 443/3/4 445/3/4
f 443/1/4 444/1/4 445/1/4
f 444/3/4 442/3/4 446/3/4
f 445/1/4 444/1/4 446/1/4
f 441/3/4 445/3/4 447/3/4
f 445/3/4 446/3/4 447/3/4
f 446/3/4 442/3/4 448/3/4
f 447/3/4 446/3/4 448/3/4
f 441/3/4 447/3/4 449/3/4
f 447/1/4 448/1/4 449/1/4
f 448/3/4 442/3/4 450/3/4
f 449/1/4 448/1/4 450/1/4
f 441/3/4 449/3/4 451/3/4
f 449/3/4 450/3/4 451/3/4
f 450/3/4 442/3/4 452/3/4
f 451/3/4 450/3/4 452/3/4
f 457/4/5 454/4/5 453/4/5
f 458/4/5 454/4/5 457/4/5
f 459/4/5 456/4/5 455/4/5
f 460/4/5 456/4/5 459/4/5
f 465/4/5 462/4/5 461/4/5
f 466/4/5 462/4/5 465/4/5
f 467/4/5 464/4/5 463/4/5
f 468/4/5 464/4/5 467/4/5
f 473/4/5 470/4/5 469/4/5
f 474/4/5 470/4/5 473/4/5
f 475/4/5 472/4/5 471/4/5
f 476/4/5 472/4/5 475/4/5
f 481/4/5 478/4/5 477/4/5
f 482/4/5 478/4/5 481/4/5
f 483/4/5 480/4/5 479/4/5
f 484/4/5 480/4/5 483/4/5
f 489/4/5 486/4/5 485/4/5
f 490/4/5 486/4/5 489/4/5
f 491/4/5 488/4/5 487/4/5
f 492/4/5 488/4/5 491/4/5
f 497/4/5 494/4/5 493/4/5
f 498/4/5 494/4/5 497/4/5
f 499/4/5 496/4/5 495/4/5
f 500/4/5 496/4/5 499/4/5
f 505/4/5 502/4/5 501/4/5
f 506/4/5 502/4/5 505/4/5
f 507/4/5 504/4/5 503/4/5
f 508/4/5 504/4/5 507/4/5
f 513/4/5 510/4/5 509/4/5
f 514/4/5 510/4/5 513/4/5
f 515/4/5 512/4/5 511/4/5
f 516/4/5 512/4/5 515/4/5
f 521/4/5 518/4/5 517/4/5
f 522/4/5 518/4/5 521/4/5
f 523/4/5 520/4/5 519/4/5
f 524/4/5 520/4/5 523/4/5
f 529/4/5 526/4/5 525/4/5
f 530/4/5 526/4/5 529/4/5
f 531/4/5 528/4/5 527/4/5
f 532/4/5 528/4/5 531/4/5
f 535/3/5 534/3/5 533/3/5
f 536/3/5 534/3/5 535/3/5
f 537/3/5 534/3/5 536/3/5
f 538/3/5 534/3/5 537/3/5
f 540/3/5 537/3/5 536/3/5
f 541/3/5 537/3/5 540/3/5
f 543/3/5 540/3/5 539/3/5
f 543/3/5 542/3/5 541/3/5
f 543/3/5 541/3/5 540/3/5
f 544/3/5 542/3/5 543/3/5
f 545/3/5 542/3/5 544/3/5
f 546/3/5 542/3/5 545/3/5
f 548/3/5 545/3/5 544/3/5
f 549/3/5 545/3/5 548/3/5
f 551/3/5 548/3/5 547/3/5
f 551/3/5 550/3/5 549/3/5
f 551/3/5 549/3/5 548/3/5
f 552/3/5 550/3/5 551/3/5
f 553/4/6 554/4/6 557/4/6
f 557/4/6 554/4/6 558/4/6
f 555/4/6 556/4/6 559/4/6
f 559/4/6 556/4/6 560/4/6
f 561/4/6 562/4/6 565/4/6
f 565/4/6 562/4/6 566/4/6
f 563/4/6 564/4/6 567/4/6
f 567/4/6 564/4/6 568/4/6
f 569/4/6 570/4/6 573/4/6
f 573/4/6 570/4/6 574/4/6
f 571/4/6 572/4/6 575/4/6
f 575/4/6 572/4/6 576/4/6
f 577/4/6 578/4/6 581/4/6
f 581/4/6 578/4/6 582/4/6
f 579/4/6 580/4/6 583/4/6
f 583/4/6 580/4/6 584/4/6
f 585/4/6 586/4/6 589/4/6
f 589/4/6 586/4/6 590/4/6
f 587/4/6 588/4/6 591/4/6
f 591/4/6 588/4/6 592/4/6
f 593/4/6 594/4/6 597/4/6
f 597/4/6 594/4/6 598/4/6
f 595/4/6 596/4/6 599/4/6
f 599/4/6 596/4/6 600/4/6
f 601/4/6 602/4/6 605/4/6
f 605/4/6 602/4/6 606/4/6
f 603/4/6 604/4/6 607/4/6
f 607/4/6 604/4/6 608/4/6
f 609/4/6 610/4/6 613/4/6
f 613/4/6 610/4/6 614/4/6
f 611/4/6 612/4/6 615/4/6
f 615/4/6 612/4/6 616/4/6
f 617/3/6 618/3/6 619/3/6
f 619/3/6 618/3/6 620/3/6
f 617/3/6 619/3/6 621/3/6
f 619/1/6 620/1/6 621/1/6
f 620/3/6 618/3/6 622/3/6
f 621/1/6 620/1/6 622/1/6
f 617/3/6 621/3/6 623/3/6
f 621/3/6 622/3/6 623/3/6
f 622/3/6 618/3/6 624/3/6
f 623/3/6 622/3/6 624/3/6
