# MagicaVoxel @ Ephtracy

# group
g truck1

# material
mtllib truck1.mtl
usemtl palette

# normals
vn -1 0 0
vn 1 0 0
vn 0 0 1
vn 0 0 -1
vn 0 -1 0
vn 0 1 0

# texcoords
vt 0.0214844 0.5
vt 0.939453 0.5
vt 0.958984 0.5
vt 0.970703 0.5
vt 0.974609 0.5
vt 0.978516 0.5
vt 0.994141 0.5

# verts
v -9 0 7
v -9 0 4
v -9 1 8
v -9 1 7
v -9 1 4
v -9 1 3
v -9 2 9
v -9 2 8
v -9 2 6
v -9 2 5
v -9 2 3
v -9 2 2
v -9 3 7
v -9 3 6
v -9 3 5
v -9 3 4
v -9 4 7
v -9 4 6
v -9 4 5
v -9 4 4
v -9 5 9
v -9 5 8
v -9 5 6
v -9 5 5
v -9 5 3
v -9 5 2
v -9 6 8
v -9 6 7
v -9 6 4
v -9 6 3
v -9 6 -7
v -9 6 -13
v -9 7 7
v -9 7 4
v -9 12 -3
v -9 12 -5
v -9 13 -3
v -9 13 -5
v -9 23 -7
v -9 23 -13
v -8 5 15
v -8 5 9
v -8 5 8
v -8 5 3
v -8 5 2
v -8 5 -13
v -8 6 13
v -8 6 8
v -8 6 3
v -8 6 2
v -8 6 -7
v -8 6 -13
v -8 7 1
v -8 7 -6
v -8 9 15
v -8 9 13
v -8 12 -3
v -8 12 -5
v -8 13 -3
v -8 13 -5
v -8 14 1
v -8 14 -6
v -8 15 -0
v -8 15 -6
v -8 16 2
v -8 16 1
v -8 17 -0
v -8 17 -1
v -8 18 1
v -8 18 -0
v -8 19 -1
v -8 19 -2
v -8 20 -0
v -8 20 -1
v -8 21 -2
v -8 21 -6
v -8 22 -1
v -8 22 -2
v -8 23 -2
v -8 23 -7
v -8 23 -9
v -8 23 -13
v -8 24 -9
v -8 24 -13
v -7 6 13
v -7 6 8
v -7 6 7
v -7 6 4
v -7 6 3
v -7 6 2
v -7 7 7
v -7 7 4
v -7 9 14
v -7 9 13
v -7 13 14
v -7 13 12
v -7 14 12
v -7 14 2
v -6 23 -7
v -6 23 -9
v -6 24 -7
v -6 24 -9
v -6 24 -13
v -6 25 -9
v -6 25 -13
v -3 23 -6
v -3 23 -7
v -3 24 -6
v -3 24 -7
v 5 6 15
v 5 6 14
v 5 7 15
v 5 7 14
v 7 0 7
v 7 0 4
v 7 1 8
v 7 1 7
v 7 1 4
v 7 1 3
v 7 2 9
v 7 2 8
v 7 2 6
v 7 2 5
v 7 2 3
v 7 2 2
v 7 3 7
v 7 3 6
v 7 3 5
v 7 3 4
v 7 4 7
v 7 4 6
v 7 4 5
v 7 4 4
v 7 5 9
v 7 5 6
v 7 5 5
v 7 5 2
v 7 7 15
v 7 7 14
v 7 8 14
v 7 9 15
v 7 9 14
v -7 0 7
v -7 0 4
v -7 1 8
v -7 1 7
v -7 1 4
v -7 1 3
v -7 2 9
v -7 2 8
v -7 2 6
v -7 2 5
v -7 2 3
v -7 2 2
v -7 3 7
v -7 3 6
v -7 3 5
v -7 3 4
v -7 4 7
v -7 4 6
v -7 4 5
v -7 4 4
v -7 5 9
v -7 5 6
v -7 5 5
v -7 5 2
v -7 7 15
v -7 7 14
v -7 8 14
v -7 9 15
v -7 9 14
v -5 6 15
v -5 6 14
v -5 7 15
v -5 7 14
v 3 23 -6
v 3 23 -7
v 3 24 -6
v 3 24 -7
v 6 23 -7
v 6 23 -9
v 6 24 -7
v 6 24 -9
v 6 24 -13
v 6 25 -9
v 6 25 -13
v 7 6 13
v 7 6 8
v 7 6 7
v 7 6 4
v 7 6 3
v 7 6 2
v 7 7 7
v 7 7 4
v 7 9 14
v 7 9 13
v 7 13 14
v 7 13 12
v 7 14 12
v 7 14 2
v 8 5 15
v 8 5 9
v 8 5 8
v 8 5 3
v 8 5 2
v 8 5 -13
v 8 6 13
v 8 6 8
v 8 6 3
v 8 6 2
v 8 6 -7
v 8 6 -13
v 8 7 1
v 8 7 -6
v 8 9 15
v 8 9 13
v 8 12 -3
v 8 12 -5
v 8 13 -3
v 8 13 -5
v 8 14 1
v 8 14 -6
v 8 15 -0
v 8 15 -6
v 8 16 2
v 8 16 1
v 8 17 -0
v 8 17 -1
v 8 18 1
v 8 18 -0
v 8 19 -1
v 8 19 -2
v 8 20 -0
v 8 20 -1
v 8 21 -2
v 8 21 -6
v 8 22 -1
v 8 22 -2
v 8 23 -2
v 8 23 -7
v 8 23 -9
v 8 23 -13
v 8 24 -9
v 8 24 -13
v 9 0 7
v 9 0 4
v 9 1 8
v 9 1 7
v 9 1 4
v 9 1 3
v 9 2 9
v 9 2 8
v 9 2 6
v 9 2 5
v 9 2 3
v 9 2 2
v 9 3 7
v 9 3 6
v 9 3 5
v 9 3 4
v 9 4 7
v 9 4 6
v 9 4 5
v 9 4 4
v 9 5 9
v 9 5 8
v 9 5 6
v 9 5 5
v 9 5 3
v 9 5 2
v 9 6 8
v 9 6 7
v 9 6 4
v 9 6 3
v 9 6 -7
v 9 6 -13
v 9 7 7
v 9 7 4
v 9 12 -3
v 9 12 -5
v 9 13 -3
v 9 13 -5
v 9 23 -7
v 9 23 -13
v -8 5 15
v -8 9 15
v -7 7 15
v -7 9 15
v -5 6 15
v -5 7 15
v 5 6 15
v 5 7 15
v 7 7 15
v 7 9 15
v 8 5 15
v 8 9 15
v -7 7 14
v -7 8 14
v -7 9 14
v -7 13 14
v -5 6 14
v -5 7 14
v -5 8 14
v -4 6 14
v -4 11 14
v -3 7 14
v -3 10 14
v -2 7 14
v -2 10 14
v -1 7 14
v -1 10 14
v 1 7 14
v 1 10 14
v 2 7 14
v 2 10 14
v 3 7 14
v 3 10 14
v 4 6 14
v 4 11 14
v 5 6 14
v 5 7 14
v 5 8 14
v 7 7 14
v 7 8 14
v 7 9 14
v 7 13 14
v -7 13 12
v -7 14 12
v 7 13 12
v 7 14 12
v -9 2 9
v -9 5 9
v -8 5 9
v -7 2 9
v -7 5 9
v 7 2 9
v 7 5 9
v 8 5 9
v 9 2 9
v 9 5 9
v -9 1 8
v -9 2 8
v -9 5 8
v -9 6 8
v -8 5 8
v -8 6 8
v -7 1 8
v -7 2 8
v 7 1 8
v 7 2 8
v 8 5 8
v 8 6 8
v 9 1 8
v 9 2 8
v 9 5 8
v 9 6 8
v -9 0 7
v -9 1 7
v -9 6 7
v -9 7 7
v -7 0 7
v -7 1 7
v -7 6 7
v -7 7 7
v 7 0 7
v 7 1 7
v 7 6 7
v 7 7 7
v 9 0 7
v 9 1 7
v 9 6 7
v 9 7 7
v -8 6 2
v -8 16 2
v -7 6 2
v -7 14 2
v -6 14 2
v -6 16 2
v 6 14 2
v 6 16 2
v 7 6 2
v 7 14 2
v 8 6 2
v 8 16 2
v -8 16 1
v -8 18 1
v -6 16 1
v -6 18 1
v 6 16 1
v 6 18 1
v 8 16 1
v 8 18 1
v -8 18 -0
v -8 20 -0
v -6 18 -0
v -6 20 -0
v 6 18 -0
v 6 20 -0
v 8 18 -0
v 8 20 -0
v -8 20 -1
v -8 22 -1
v -6 20 -1
v -6 22 -1
v 6 20 -1
v 6 22 -1
v 8 20 -1
v 8 22 -1
v -8 22 -2
v -8 23 -2
v -6 22 -2
v 6 22 -2
v 8 22 -2
v 8 23 -2
v -9 12 -3
v -9 13 -3
v -8 12 -3
v -8 13 -3
v 8 12 -3
v 8 13 -3
v 9 12 -3
v 9 13 -3
v -3 23 -6
v -3 24 -6
v 3 23 -6
v 3 24 -6
v -9 6 -7
v -9 23 -7
v -8 6 -7
v -8 23 -7
v -6 23 -7
v -6 24 -7
v -3 23 -7
v -3 24 -7
v 3 23 -7
v 3 24 -7
v 6 23 -7
v 6 24 -7
v 8 6 -7
v 8 23 -7
v 9 6 -7
v 9 23 -7
v -8 23 -9
v -8 24 -9
v -6 23 -9
v -6 24 -9
v -6 25 -9
v 6 23 -9
v 6 24 -9
v 6 25 -9
v 8 23 -9
v 8 24 -9
v -8 6 13
v -8 9 13
v -7 6 13
v -7 9 13
v 7 6 13
v 7 9 13
v 8 6 13
v 8 9 13
v -9 0 4
v -9 1 4
v -9 6 4
v -9 7 4
v -7 0 4
v -7 1 4
v -7 6 4
v -7 7 4
v 7 0 4
v 7 1 4
v 7 6 4
v 7 7 4
v 9 0 4
v 9 1 4
v 9 6 4
v 9 7 4
v -9 1 3
v -9 2 3
v -9 5 3
v -9 6 3
v -8 5 3
v -8 6 3
v -7 1 3
v -7 2 3
v 7 1 3
v 7 2 3
v 8 5 3
v 8 6 3
v 9 1 3
v 9 2 3
v 9 5 3
v 9 6 3
v -9 2 2
v -9 5 2
v -8 5 2
v -7 2 2
v -7 5 2
v 7 2 2
v 7 5 2
v 8 5 2
v 9 2 2
v 9 5 2
v -9 12 -5
v -9 13 -5
v -8 12 -5
v -8 13 -5
v 8 12 -5
v 8 13 -5
v 9 12 -5
v 9 13 -5
v -9 6 -13
v -9 23 -13
v -8 5 -13
v -8 6 -13
v -8 23 -13
v -8 24 -13
v -6 24 -13
v -6 25 -13
v 6 24 -13
v 6 25 -13
v 8 5 -13
v 8 6 -13
v 8 23 -13
v 8 24 -13
v 9 6 -13
v 9 23 -13
v -9 0 7
v -7 0 7
v 7 0 7
v 9 0 7
v -9 0 4
v -7 0 4
v 7 0 4
v 9 0 4
v -9 1 8
v -7 1 8
v 7 1 8
v 9 1 8
v -9 1 7
v -7 1 7
v 7 1 7
v 9 1 7
v -9 1 4
v -7 1 4
v 7 1 4
v 9 1 4
v -9 1 3
v -7 1 3
v 7 1 3
v 9 1 3
v -9 2 9
v -7 2 9
v 7 2 9
v 9 2 9
v -9 2 8
v -7 2 8
v 7 2 8
v 9 2 8
v -9 2 3
v -7 2 3
v 7 2 3
v 9 2 3
v -9 2 2
v -7 2 2
v 7 2 2
v 9 2 2
v -8 5 15
v 8 5 15
v -8 5 9
v -7 5 9
v 7 5 9
v 8 5 9
v -7 5 6
v 7 5 6
v -7 5 5
v 7 5 5
v -8 5 2
v -7 5 2
v 7 5 2
v 8 5 2
v -8 5 -13
v 8 5 -13
v -9 6 -7
v -8 6 -7
v 8 6 -7
v 9 6 -7
v -9 6 -13
v -8 6 -13
v 8 6 -13
v 9 6 -13
v -9 12 -3
v -8 12 -3
v 8 12 -3
v 9 12 -3
v -9 12 -5
v -8 12 -5
v 8 12 -5
v 9 12 -5
v -9 5 9
v -8 5 9
v 8 5 9
v 9 5 9
v -9 5 8
v -8 5 8
v 8 5 8
v 9 5 8
v -9 5 3
v -8 5 3
v 8 5 3
v 9 5 3
v -9 5 2
v -8 5 2
v 8 5 2
v 9 5 2
v -5 6 15
v 5 6 15
v -5 6 14
v -4 6 14
v 4 6 14
v 5 6 14
v -8 6 13
v -7 6 13
v 7 6 13
v 8 6 13
v -9 6 8
v -8 6 8
v -7 6 8
v 7 6 8
v 8 6 8
v 9 6 8
v -9 6 7
v -7 6 7
v 7 6 7
v 9 6 7
v -9 6 4
v -7 6 4
v 7 6 4
v 9 6 4
v -9 6 3
v -8 6 3
v -7 6 3
v 7 6 3
v 8 6 3
v 9 6 3
v -8 6 2
v -7 6 2
v 7 6 2
v 8 6 2
v -7 7 15
v -5 7 15
v 5 7 15
v 7 7 15
v -7 7 14
v -5 7 14
v 5 7 14
v 7 7 14
v -9 7 7
v -7 7 7
v 7 7 7
v 9 7 7
v -9 7 4
v -7 7 4
v 7 7 4
v 9 7 4
v -8 9 15
v -7 9 15
v 7 9 15
v 8 9 15
v -7 9 14
v 7 9 14
v -8 9 13
v -7 9 13
v 7 9 13
v 8 9 13
v -7 13 14
v 7 13 14
v -7 13 12
v 7 13 12
v -9 13 -3
v -8 13 -3
v 8 13 -3
v 9 13 -3
v -9 13 -5
v -8 13 -5
v 8 13 -5
v 9 13 -5
v -7 14 12
v 7 14 12
v -7 14 2
v -6 14 2
v 6 14 2
v 7 14 2
v -8 16 2
v -6 16 2
v 6 16 2
v 8 16 2
v -8 16 1
v -6 16 1
v 6 16 1
v 8 16 1
v -8 18 1
v -6 18 1
v 6 18 1
v 8 18 1
v -8 18 -0
v -6 18 -0
v 6 18 -0
v 8 18 -0
v -8 20 -0
v -6 20 -0
v 6 20 -0
v 8 20 -0
v -8 20 -1
v -6 20 -1
v 6 20 -1
v 8 20 -1
v -8 22 -1
v -6 22 -1
v 6 22 -1
v 8 22 -1
v -8 22 -2
v -6 22 -2
v 6 22 -2
v 8 22 -2
v -8 23 -2
v 8 23 -2
v -3 23 -6
v 3 23 -6
v -9 23 -7
v -8 23 -7
v -6 23 -7
v -3 23 -7
v 3 23 -7
v 6 23 -7
v 8 23 -7
v 9 23 -7
v -8 23 -9
v -6 23 -9
v 6 23 -9
v 8 23 -9
v -9 23 -13
v -8 23 -13
v 8 23 -13
v 9 23 -13
v -3 24 -6
v 3 24 -6
v -6 24 -7
v -3 24 -7
v 3 24 -7
v 6 24 -7
v -8 24 -9
v -6 24 -9
v 6 24 -9
v 8 24 -9
v -8 24 -13
v -6 24 -13
v 6 24 -13
v 8 24 -13
v -6 25 -9
v 6 25 -9
v -6 25 -13
v 6 25 -13

# faces
f 4/7/1 2/7/1 1/7/1
f 5/7/1 2/7/1 4/7/1
f 8/7/1 4/7/1 3/7/1
f 8/7/1 6/7/1 5/7/1
f 8/7/1 5/7/1 4/7/1
f 9/7/1 6/7/1 8/7/1
f 10/7/1 6/7/1 9/7/1
f 11/7/1 6/7/1 10/7/1
f 13/7/1 8/7/1 7/7/1
f 13/7/1 9/7/1 8/7/1
f 14/4/1 10/4/1 9/4/1
f 14/7/1 9/7/1 13/7/1
f 15/7/1 12/7/1 11/7/1
f 15/4/1 10/4/1 14/4/1
f 15/7/1 11/7/1 10/7/1
f 16/7/1 12/7/1 15/7/1
f 17/4/1 14/4/1 13/4/1
f 17/7/1 13/7/1 7/7/1
f 17/4/1 16/4/1 15/4/1
f 17/4/1 15/4/1 14/4/1
f 18/4/1 16/4/1 17/4/1
f 19/4/1 16/4/1 18/4/1
f 20/7/1 12/7/1 16/7/1
f 20/4/1 16/4/1 19/4/1
f 21/7/1 17/7/1 7/7/1
f 21/7/1 18/7/1 17/7/1
f 22/7/1 18/7/1 21/7/1
f 23/4/1 19/4/1 18/4/1
f 23/7/1 18/7/1 22/7/1
f 24/7/1 20/7/1 19/7/1
f 24/4/1 19/4/1 23/4/1
f 25/7/1 12/7/1 20/7/1
f 25/7/1 20/7/1 24/7/1
f 26/7/1 12/7/1 25/7/1
f 27/7/1 24/7/1 23/7/1
f 27/7/1 25/7/1 24/7/1
f 27/7/1 23/7/1 22/7/1
f 28/7/1 25/7/1 27/7/1
f 29/7/1 25/7/1 28/7/1
f 30/7/1 25/7/1 29/7/1
f 33/7/1 29/7/1 28/7/1
f 34/7/1 29/7/1 33/7/1
f 37/7/1 36/7/1 35/7/1
f 38/7/1 36/7/1 37/7/1
f 39/3/1 32/3/1 31/3/1
f 40/3/1 32/3/1 39/3/1
f 47/6/1 42/6/1 41/6/1
f 47/6/1 43/6/1 42/6/1
f 48/6/1 43/6/1 47/6/1
f 49/6/1 46/6/1 45/6/1
f 49/6/1 45/6/1 44/6/1
f 50/6/1 46/6/1 49/6/1
f 51/6/1 46/6/1 50/6/1
f 52/6/1 46/6/1 51/6/1
f 53/5/1 51/5/1 50/5/1
f 54/5/1 51/5/1 53/5/1
f 55/6/1 47/6/1 41/6/1
f 56/6/1 47/6/1 55/6/1
f 57/3/1 54/3/1 53/3/1
f 58/3/1 54/3/1 57/3/1
f 59/3/1 57/3/1 53/3/1
f 60/3/1 54/3/1 58/3/1
f 61/5/1 53/5/1 50/5/1
f 61/3/1 60/3/1 59/3/1
f 61/3/1 59/3/1 53/3/1
f 62/5/1 51/5/1 54/5/1
f 62/3/1 60/3/1 61/3/1
f 62/3/1 54/3/1 60/3/1
f 63/5/1 62/5/1 61/5/1
f 64/5/1 51/5/1 62/5/1
f 64/5/1 62/5/1 63/5/1
f 65/5/1 61/5/1 50/5/1
f 65/5/1 63/5/1 61/5/1
f 66/5/1 63/5/1 65/5/1
f 67/2/1 64/2/1 63/2/1
f 67/5/1 63/5/1 66/5/1
f 68/2/1 64/2/1 67/2/1
f 69/5/1 67/5/1 66/5/1
f 69/5/1 68/5/1 67/5/1
f 70/5/1 68/5/1 69/5/1
f 71/2/1 64/2/1 68/2/1
f 71/5/1 68/5/1 70/5/1
f 72/2/1 64/2/1 71/2/1
f 73/5/1 71/5/1 70/5/1
f 73/5/1 72/5/1 71/5/1
f 74/5/1 72/5/1 73/5/1
f 75/2/1 64/2/1 72/2/1
f 75/5/1 72/5/1 74/5/1
f 76/5/1 51/5/1 64/5/1
f 76/2/1 64/2/1 75/2/1
f 77/5/1 75/5/1 74/5/1
f 77/5/1 76/5/1 75/5/1
f 78/5/1 76/5/1 77/5/1
f 79/5/1 76/5/1 78/5/1
f 80/5/1 51/5/1 76/5/1
f 80/5/1 76/5/1 79/5/1
f 83/3/1 82/3/1 81/3/1
f 84/3/1 82/3/1 83/3/1
f 91/3/1 86/3/1 85/3/1
f 91/3/1 87/3/1 86/3/1
f 92/3/1 90/3/1 89/3/1
f 92/3/1 89/3/1 88/3/1
f 94/3/1 91/3/1 85/3/1
f 94/3/1 92/3/1 91/3/1
f 95/3/1 94/3/1 93/3/1
f 96/3/1 92/3/1 94/3/1
f 96/3/1 94/3/1 95/3/1
f 97/3/1 92/3/1 96/3/1
f 98/3/1 90/3/1 92/3/1
f 98/3/1 92/3/1 97/3/1
f 101/3/1 100/3/1 99/3/1
f 102/3/1 100/3/1 101/3/1
f 104/3/1 103/3/1 102/3/1
f 105/3/1 103/3/1 104/3/1
f 108/3/1 107/3/1 106/3/1
f 109/3/1 107/3/1 108/3/1
f 112/6/1 111/6/1 110/6/1
f 113/6/1 111/6/1 112/6/1
f 117/7/1 115/7/1 114/7/1
f 118/7/1 115/7/1 117/7/1
f 121/7/1 117/7/1 116/7/1
f 121/7/1 119/7/1 118/7/1
f 121/7/1 118/7/1 117/7/1
f 122/7/1 119/7/1 121/7/1
f 123/7/1 119/7/1 122/7/1
f 124/7/1 119/7/1 123/7/1
f 126/7/1 121/7/1 120/7/1
f 126/7/1 122/7/1 121/7/1
f 127/4/1 123/4/1 122/4/1
f 127/7/1 122/7/1 126/7/1
f 128/7/1 125/7/1 124/7/1
f 128/4/1 123/4/1 127/4/1
f 128/7/1 124/7/1 123/7/1
f 129/7/1 125/7/1 128/7/1
f 130/4/1 127/4/1 126/4/1
f 130/7/1 126/7/1 120/7/1
f 130/4/1 129/4/1 128/4/1
f 130/4/1 128/4/1 127/4/1
f 131/4/1 129/4/1 130/4/1
f 132/4/1 129/4/1 131/4/1
f 133/7/1 125/7/1 129/7/1
f 133/4/1 129/4/1 132/4/1
f 134/7/1 130/7/1 120/7/1
f 134/7/1 131/7/1 130/7/1
f 135/4/1 132/4/1 131/4/1
f 135/7/1 131/7/1 134/7/1
f 136/7/1 133/7/1 132/7/1
f 136/4/1 132/4/1 135/4/1
f 137/7/1 125/7/1 133/7/1
f 137/7/1 133/7/1 136/7/1
f 140/6/1 139/6/1 138/6/1
f 141/6/1 140/6/1 138/6/1
f 142/6/1 140/6/1 141/6/1
f 143/7/2 144/7/2 146/7/2
f 146/7/2 144/7/2 147/7/2
f 145/7/2 146/7/2 150/7/2
f 147/7/2 148/7/2 150/7/2
f 146/7/2 147/7/2 150/7/2
f 150/7/2 148/7/2 151/7/2
f 151/7/2 148/7/2 152/7/2
f 152/7/2 148/7/2 153/7/2
f 149/7/2 150/7/2 155/7/2
f 150/7/2 151/7/2 155/7/2
f 151/4/2 152/4/2 156/4/2
f 155/7/2 151/7/2 156/7/2
f 153/7/2 154/7/2 157/7/2
f 156/4/2 152/4/2 157/4/2
f 152/7/2 153/7/2 157/7/2
f 157/7/2 154/7/2 158/7/2
f 155/4/2 156/4/2 159/4/2
f 149/7/2 155/7/2 159/7/2
f 157/4/2 158/4/2 159/4/2
f 156/4/2 157/4/2 159/4/2
f 159/4/2 158/4/2 160/4/2
f 160/4/2 158/4/2 161/4/2
f 158/7/2 154/7/2 162/7/2
f 161/4/2 158/4/2 162/4/2
f 149/7/2 159/7/2 163/7/2
f 159/7/2 160/7/2 163/7/2
f 160/4/2 161/4/2 164/4/2
f 163/7/2 160/7/2 164/7/2
f 161/7/2 162/7/2 165/7/2
f 164/4/2 161/4/2 165/4/2
f 162/7/2 154/7/2 166/7/2
f 165/7/2 162/7/2 166/7/2
f 167/6/2 168/6/2 169/6/2
f 167/6/2 169/6/2 170/6/2
f 170/6/2 169/6/2 171/6/2
f 172/6/2 173/6/2 174/6/2
f 174/6/2 173/6/2 175/6/2
f 176/3/2 177/3/2 178/3/2
f 178/3/2 177/3/2 179/3/2
f 180/3/2 181/3/2 182/3/2
f 182/3/2 181/3/2 183/3/2
f 183/3/2 184/3/2 185/3/2
f 185/3/2 184/3/2 186/3/2
f 187/3/2 188/3/2 193/3/2
f 188/3/2 189/3/2 193/3/2
f 191/3/2 192/3/2 194/3/2
f 190/3/2 191/3/2 194/3/2
f 187/3/2 193/3/2 196/3/2
f 193/3/2 194/3/2 196/3/2
f 195/3/2 196/3/2 197/3/2
f 196/3/2 194/3/2 198/3/2
f 197/3/2 196/3/2 198/3/2
f 198/3/2 194/3/2 199/3/2
f 194/3/2 192/3/2 200/3/2
f 199/3/2 194/3/2 200/3/2
f 201/6/2 202/6/2 207/6/2
f 202/6/2 203/6/2 207/6/2
f 207/6/2 203/6/2 208/6/2
f 205/6/2 206/6/2 209/6/2
f 204/6/2 205/6/2 209/6/2
f 209/6/2 206/6/2 210/6/2
f 210/6/2 206/6/2 211/6/2
f 211/6/2 206/6/2 212/6/2
f 210/5/2 211/5/2 213/5/2
f 213/5/2 211/5/2 214/5/2
f 201/6/2 207/6/2 215/6/2
f 215/6/2 207/6/2 216/6/2
f 213/3/2 214/3/2 217/3/2
f 217/3/2 214/3/2 218/3/2
f 213/3/2 217/3/2 219/3/2
f 218/3/2 214/3/2 220/3/2
f 210/5/2 213/5/2 221/5/2
f 219/3/2 220/3/2 221/3/2
f 213/3/2 219/3/2 221/3/2
f 214/5/2 211/5/2 222/5/2
f 221/3/2 220/3/2 222/3/2
f 220/3/2 214/3/2 222/3/2
f 221/5/2 222/5/2 223/5/2
f 222/5/2 211/5/2 224/5/2
f 223/5/2 222/5/2 224/5/2
f 210/5/2 221/5/2 225/5/2
f 221/5/2 223/5/2 225/5/2
f 225/5/2 223/5/2 226/5/2
f 223/2/2 224/2/2 227/2/2
f 226/5/2 223/5/2 227/5/2
f 227/2/2 224/2/2 228/2/2
f 226/5/2 227/5/2 229/5/2
f 227/5/2 228/5/2 229/5/2
f 229/5/2 228/5/2 230/5/2
f 228/2/2 224/2/2 231/2/2
f 230/5/2 228/5/2 231/5/2
f 231/2/2 224/2/2 232/2/2
f 230/5/2 231/5/2 233/5/2
f 231/5/2 232/5/2 233/5/2
f 233/5/2 232/5/2 234/5/2
f 232/2/2 224/2/2 235/2/2
f 234/5/2 232/5/2 235/5/2
f 224/5/2 211/5/2 236/5/2
f 235/2/2 224/2/2 236/2/2
f 234/5/2 235/5/2 237/5/2
f 235/5/2 236/5/2 237/5/2
f 237/5/2 236/5/2 238/5/2
f 238/5/2 236/5/2 239/5/2
f 236/5/2 211/5/2 240/5/2
f 239/5/2 236/5/2 240/5/2
f 241/3/2 242/3/2 243/3/2
f 243/3/2 242/3/2 244/3/2
f 245/7/2 246/7/2 248/7/2
f 248/7/2 246/7/2 249/7/2
f 247/7/2 248/7/2 252/7/2
f 249/7/2 250/7/2 252/7/2
f 248/7/2 249/7/2 252/7/2
f 252/7/2 250/7/2 253/7/2
f 253/7/2 250/7/2 254/7/2
f 254/7/2 250/7/2 255/7/2
f 251/7/2 252/7/2 257/7/2
f 252/7/2 253/7/2 257/7/2
f 253/4/2 254/4/2 258/4/2
f 257/7/2 253/7/2 258/7/2
f 255/7/2 256/7/2 259/7/2
f 258/4/2 254/4/2 259/4/2
f 254/7/2 255/7/2 259/7/2
f 259/7/2 256/7/2 260/7/2
f 257/4/2 258/4/2 261/4/2
f 251/7/2 257/7/2 261/7/2
f 259/4/2 260/4/2 261/4/2
f 258/4/2 259/4/2 261/4/2
f 261/4/2 260/4/2 262/4/2
f 262/4/2 260/4/2 263/4/2
f 260/7/2 256/7/2 264/7/2
f 263/4/2 260/4/2 264/4/2
f 251/7/2 261/7/2 265/7/2
f 261/7/2 262/7/2 265/7/2
f 265/7/2 262/7/2 266/7/2
f 262/4/2 263/4/2 267/4/2
f 266/7/2 262/7/2 267/7/2
f 263/7/2 264/7/2 268/7/2
f 267/4/2 263/4/2 268/4/2
f 264/7/2 256/7/2 269/7/2
f 268/7/2 264/7/2 269/7/2
f 269/7/2 256/7/2 270/7/2
f 267/7/2 268/7/2 271/7/2
f 268/7/2 269/7/2 271/7/2
f 266/7/2 267/7/2 271/7/2
f 271/7/2 269/7/2 272/7/2
f 272/7/2 269/7/2 273/7/2
f 273/7/2 269/7/2 274/7/2
f 272/7/2 273/7/2 277/7/2
f 277/7/2 273/7/2 278/7/2
f 279/7/2 280/7/2 281/7/2
f 281/7/2 280/7/2 282/7/2
f 275/3/2 276/3/2 283/3/2
f 283/3/2 276/3/2 284/3/2
f 287/6/3 286/6/3 285/6/3
f 288/6/3 286/6/3 287/6/3
f 289/6/3 287/6/3 285/6/3
f 290/6/3 287/6/3 289/6/3
f 291/6/3 289/6/3 285/6/3
f 293/6/3 292/6/3 291/6/3
f 295/6/3 293/6/3 291/6/3
f 295/6/3 294/6/3 293/6/3
f 295/6/3 291/6/3 285/6/3
f 296/6/3 294/6/3 295/6/3
f 302/1/3 298/1/3 297/1/3
f 303/3/3 300/3/3 299/3/3
f 303/3/3 299/3/3 298/3/3
f 303/1/3 298/1/3 302/1/3
f 304/3/3 302/3/3 301/3/3
f 304/3/3 303/3/3 302/3/3
f 305/3/3 300/3/3 303/3/3
f 305/3/3 303/3/3 304/3/3
f 306/7/3 305/7/3 304/7/3
f 307/7/3 305/7/3 306/7/3
f 308/7/3 306/7/3 304/7/3
f 308/5/3 307/5/3 306/5/3
f 309/7/3 305/7/3 307/7/3
f 309/5/3 307/5/3 308/5/3
f 310/7/3 308/7/3 304/7/3
f 310/7/3 309/7/3 308/7/3
f 311/7/3 305/7/3 309/7/3
f 311/7/3 309/7/3 310/7/3
f 312/7/3 310/7/3 304/7/3
f 312/5/3 311/5/3 310/5/3
f 313/7/3 305/7/3 311/7/3
f 313/5/3 311/5/3 312/5/3
f 314/7/3 312/7/3 304/7/3
f 314/7/3 313/7/3 312/7/3
f 315/7/3 305/7/3 313/7/3
f 315/7/3 313/7/3 314/7/3
f 316/7/3 314/7/3 304/7/3
f 316/5/3 315/5/3 314/5/3
f 317/7/3 305/7/3 315/7/3
f 317/5/3 315/5/3 316/5/3
f 318/7/3 316/7/3 304/7/3
f 318/7/3 317/7/3 316/7/3
f 319/3/3 300/3/3 305/3/3
f 319/7/3 317/7/3 318/7/3
f 319/7/3 305/7/3 317/7/3
f 320/3/3 319/3/3 318/3/3
f 321/3/3 319/3/3 320/3/3
f 322/3/3 319/3/3 321/3/3
f 323/1/3 322/1/3 321/1/3
f 324/3/3 319/3/3 322/3/3
f 324/1/3 322/1/3 323/1/3
f 325/3/3 319/3/3 324/3/3
f 326/3/3 300/3/3 319/3/3
f 326/3/3 319/3/3 325/3/3
f 329/3/3 328/3/3 327/3/3
f 330/3/3 328/3/3 329/3/3
f 333/7/3 332/7/3 331/7/3
f 334/7/3 333/7/3 331/7/3
f 335/7/3 333/7/3 334/7/3
f 338/7/3 337/7/3 336/7/3
f 339/7/3 338/7/3 336/7/3
f 340/7/3 338/7/3 339/7/3
f 345/7/3 344/7/3 343/7/3
f 346/7/3 344/7/3 345/7/3
f 347/7/3 342/7/3 341/7/3
f 348/7/3 342/7/3 347/7/3
f 353/7/3 350/7/3 349/7/3
f 354/7/3 350/7/3 353/7/3
f 355/7/3 352/7/3 351/7/3
f 356/7/3 352/7/3 355/7/3
f 361/7/3 358/7/3 357/7/3
f 362/7/3 358/7/3 361/7/3
f 363/7/3 360/7/3 359/7/3
f 364/7/3 360/7/3 363/7/3
f 369/7/3 366/7/3 365/7/3
f 370/7/3 366/7/3 369/7/3
f 371/7/3 368/7/3 367/7/3
f 372/7/3 368/7/3 371/7/3
f 375/5/3 374/5/3 373/5/3
f 376/5/3 374/5/3 375/5/3
f 377/5/3 374/5/3 376/5/3
f 378/5/3 374/5/3 377/5/3
f 379/2/3 378/2/3 377/2/3
f 380/2/3 378/2/3 379/2/3
f 382/5/3 380/5/3 379/5/3
f 383/5/3 382/5/3 381/5/3
f 384/5/3 380/5/3 382/5/3
f 384/5/3 382/5/3 383/5/3
f 387/5/3 386/5/3 385/5/3
f 388/5/3 386/5/3 387/5/3
f 389/2/3 388/2/3 387/2/3
f 390/2/3 388/2/3 389/2/3
f 391/5/3 390/5/3 389/5/3
f 392/5/3 390/5/3 391/5/3
f 395/5/3 394/5/3 393/5/3
f 396/5/3 394/5/3 395/5/3
f 397/2/3 396/2/3 395/2/3
f 398/2/3 396/2/3 397/2/3
f 399/5/3 398/5/3 397/5/3
f 400/5/3 398/5/3 399/5/3
f 403/5/3 402/5/3 401/5/3
f 404/5/3 402/5/3 403/5/3
f 405/2/3 404/2/3 403/2/3
f 406/2/3 404/2/3 405/2/3
f 407/5/3 406/5/3 405/5/3
f 408/5/3 406/5/3 407/5/3
f 411/5/3 410/5/3 409/5/3
f 412/5/3 410/5/3 411/5/3
f 413/5/3 410/5/3 412/5/3
f 414/5/3 410/5/3 413/5/3
f 417/7/3 416/7/3 415/7/3
f 418/7/3 416/7/3 417/7/3
f 421/7/3 420/7/3 419/7/3
f 422/7/3 420/7/3 421/7/3
f 425/3/3 424/3/3 423/3/3
f 426/3/3 424/3/3 425/3/3
f 429/3/3 428/3/3 427/3/3
f 430/3/3 428/3/3 429/3/3
f 433/3/3 432/3/3 431/3/3
f 434/3/3 432/3/3 433/3/3
f 437/3/3 436/3/3 435/3/3
f 438/3/3 436/3/3 437/3/3
f 441/3/3 440/3/3 439/3/3
f 442/3/3 440/3/3 441/3/3
f 445/3/3 444/3/3 443/3/3
f 446/3/3 444/3/3 445/3/3
f 449/3/3 447/3/3 446/3/3
f 450/3/3 447/3/3 449/3/3
f 451/3/3 449/3/3 448/3/3
f 452/3/3 449/3/3 451/3/3
f 453/6/4 454/6/4 455/6/4
f 455/6/4 454/6/4 456/6/4
f 457/6/4 458/6/4 459/6/4
f 459/6/4 458/6/4 460/6/4
f 461/7/4 462/7/4 465/7/4
f 465/7/4 462/7/4 466/7/4
f 463/7/4 464/7/4 467/7/4
f 467/7/4 464/7/4 468/7/4
f 469/7/4 470/7/4 473/7/4
f 473/7/4 470/7/4 474/7/4
f 471/7/4 472/7/4 475/7/4
f 475/7/4 472/7/4 476/7/4
f 479/7/4 480/7/4 481/7/4
f 481/7/4 480/7/4 482/7/4
f 477/7/4 478/7/4 483/7/4
f 483/7/4 478/7/4 484/7/4
f 485/7/4 486/7/4 489/7/4
f 489/7/4 486/7/4 490/7/4
f 487/7/4 488/7/4 491/7/4
f 491/7/4 488/7/4 492/7/4
f 493/7/4 494/7/4 495/7/4
f 493/7/4 495/7/4 496/7/4
f 496/7/4 495/7/4 497/7/4
f 498/7/4 499/7/4 500/7/4
f 498/7/4 500/7/4 501/7/4
f 501/7/4 500/7/4 502/7/4
f 503/7/4 504/7/4 505/7/4
f 505/7/4 504/7/4 506/7/4
f 507/7/4 508/7/4 509/7/4
f 509/7/4 508/7/4 510/7/4
f 511/3/4 512/3/4 514/3/4
f 514/3/4 512/3/4 515/3/4
f 514/3/4 515/3/4 517/3/4
f 515/3/4 516/3/4 517/3/4
f 514/3/4 517/3/4 519/3/4
f 517/3/4 518/3/4 519/3/4
f 519/3/4 518/3/4 520/3/4
f 513/6/4 514/6/4 521/6/4
f 514/3/4 519/3/4 522/3/4
f 521/6/4 514/6/4 522/6/4
f 522/3/4 519/3/4 523/3/4
f 523/3/4 519/3/4 524/3/4
f 522/3/4 523/3/4 525/3/4
f 525/3/4 523/3/4 526/3/4
f 531/7/5 528/7/5 527/7/5
f 532/7/5 528/7/5 531/7/5
f 533/7/5 530/7/5 529/7/5
f 534/7/5 530/7/5 533/7/5
f 539/7/5 536/7/5 535/7/5
f 540/7/5 536/7/5 539/7/5
f 541/7/5 538/7/5 537/7/5
f 542/7/5 538/7/5 541/7/5
f 547/7/5 544/7/5 543/7/5
f 548/7/5 544/7/5 547/7/5
f 549/7/5 546/7/5 545/7/5
f 550/7/5 546/7/5 549/7/5
f 555/7/5 552/7/5 551/7/5
f 556/7/5 552/7/5 555/7/5
f 557/7/5 554/7/5 553/7/5
f 558/7/5 554/7/5 557/7/5
f 563/7/5 560/7/5 559/7/5
f 564/7/5 560/7/5 563/7/5
f 565/7/5 562/7/5 561/7/5
f 566/7/5 562/7/5 565/7/5
f 569/6/5 568/6/5 567/6/5
f 570/6/5 568/6/5 569/6/5
f 571/6/5 568/6/5 570/6/5
f 572/6/5 568/6/5 571/6/5
f 573/6/5 571/6/5 570/6/5
f 574/6/5 571/6/5 573/6/5
f 575/6/5 574/6/5 573/6/5
f 576/6/5 574/6/5 575/6/5
f 578/6/5 576/6/5 575/6/5
f 579/6/5 576/6/5 578/6/5
f 581/6/5 579/6/5 578/6/5
f 581/6/5 580/6/5 579/6/5
f 581/6/5 578/6/5 577/6/5
f 582/6/5 580/6/5 581/6/5
f 587/3/5 584/3/5 583/3/5
f 588/3/5 584/3/5 587/3/5
f 589/3/5 586/3/5 585/3/5
f 590/3/5 586/3/5 589/3/5
f 595/7/5 592/7/5 591/7/5
f 596/7/5 592/7/5 595/7/5
f 597/7/5 594/7/5 593/7/5
f 598/7/5 594/7/5 597/7/5
f 599/7/6 600/7/6 603/7/6
f 603/7/6 600/7/6 604/7/6
f 601/7/6 602/7/6 605/7/6
f 605/7/6 602/7/6 606/7/6
f 607/7/6 608/7/6 611/7/6
f 611/7/6 608/7/6 612/7/6
f 609/7/6 610/7/6 613/7/6
f 613/7/6 610/7/6 614/7/6
f 615/6/6 616/6/6 617/6/6
f 617/6/6 616/6/6 618/6/6
f 618/6/6 616/6/6 619/6/6
f 619/6/6 616/6/6 620/6/6
f 621/6/6 622/6/6 626/6/6
f 626/6/6 622/6/6 627/6/6
f 623/6/6 624/6/6 628/6/6
f 628/6/6 624/6/6 629/6/6
f 626/7/6 627/7/6 631/7/6
f 625/7/6 626/7/6 631/7/6
f 631/7/6 627/7/6 632/7/6
f 629/7/6 630/7/6 633/7/6
f 628/7/6 629/7/6 633/7/6
f 633/7/6 630/7/6 634/7/6
f 635/7/6 636/7/6 639/7/6
f 639/7/6 636/7/6 640/7/6
f 640/7/6 636/7/6 641/7/6
f 637/7/6 638/7/6 642/7/6
f 642/7/6 638/7/6 643/7/6
f 643/7/6 638/7/6 644/7/6
f 640/6/6 641/6/6 645/6/6
f 645/6/6 641/6/6 646/6/6
f 642/6/6 643/6/6 647/6/6
f 647/6/6 643/6/6 648/6/6
f 649/6/6 650/6/6 653/6/6
f 653/6/6 650/6/6 654/6/6
f 651/6/6 652/6/6 655/6/6
f 655/6/6 652/6/6 656/6/6
f 657/7/6 658/7/6 661/7/6
f 661/7/6 658/7/6 662/7/6
f 659/7/6 660/7/6 663/7/6
f 663/7/6 660/7/6 664/7/6
f 665/6/6 666/6/6 669/6/6
f 667/6/6 668/6/6 670/6/6
f 665/6/6 669/6/6 671/6/6
f 671/6/6 669/6/6 672/6/6
f 670/6/6 668/6/6 673/6/6
f 673/6/6 668/6/6 674/6/6
f 675/3/6 676/3/6 677/3/6
f 677/3/6 676/3/6 678/3/6
f 679/7/6 680/7/6 683/7/6
f 683/7/6 680/7/6 684/7/6
f 681/7/6 682/7/6 685/7/6
f 685/7/6 682/7/6 686/7/6
f 687/3/6 688/3/6 689/3/6
f 689/3/6 688/3/6 690/3/6
f 690/3/6 688/3/6 691/3/6
f 691/3/6 688/3/6 692/3/6
f 693/5/6 694/5/6 697/5/6
f 694/2/6 695/2/6 698/2/6
f 697/5/6 694/5/6 698/5/6
f 695/5/6 696/5/6 699/5/6
f 698/2/6 695/2/6 699/2/6
f 699/5/6 696/5/6 700/5/6
f 701/5/6 702/5/6 705/5/6
f 702/2/6 703/2/6 706/2/6
f 705/5/6 702/5/6 706/5/6
f 703/5/6 704/5/6 707/5/6
f 706/2/6 703/2/6 707/2/6
f 707/5/6 704/5/6 708/5/6
f 709/5/6 710/5/6 713/5/6
f 710/2/6 711/2/6 714/2/6
f 713/5/6 710/5/6 714/5/6
f 711/5/6 712/5/6 715/5/6
f 714/2/6 711/2/6 715/2/6
f 715/5/6 712/5/6 716/5/6
f 717/5/6 718/5/6 721/5/6
f 718/2/6 719/2/6 722/2/6
f 721/5/6 718/5/6 722/5/6
f 719/5/6 720/5/6 723/5/6
f 722/2/6 719/2/6 723/2/6
f 723/5/6 720/5/6 724/5/6
f 725/5/6 726/5/6 727/5/6
f 727/5/6 726/5/6 728/5/6
f 725/5/6 727/5/6 730/5/6
f 730/5/6 727/5/6 731/5/6
f 731/5/6 727/5/6 732/5/6
f 728/5/6 726/5/6 733/5/6
f 733/5/6 726/5/6 734/5/6
f 734/5/6 726/5/6 735/5/6
f 729/3/6 730/3/6 737/3/6
f 730/3/6 731/3/6 737/3/6
f 737/3/6 731/3/6 738/3/6
f 735/3/6 736/3/6 739/3/6
f 734/3/6 735/3/6 739/3/6
f 739/3/6 736/3/6 740/3/6
f 729/3/6 737/3/6 741/3/6
f 741/3/6 737/3/6 742/3/6
f 740/3/6 736/3/6 743/3/6
f 743/3/6 736/3/6 744/3/6
f 745/3/6 746/3/6 748/3/6
f 748/3/6 746/3/6 749/3/6
f 747/3/6 748/3/6 752/3/6
f 749/3/6 750/3/6 752/3/6
f 748/3/6 749/3/6 752/3/6
f 752/3/6 750/3/6 753/3/6
f 751/3/6 752/3/6 755/3/6
f 755/3/6 752/3/6 756/3/6
f 753/3/6 754/3/6 757/3/6
f 757/3/6 754/3/6 758/3/6
f 759/3/6 760/3/6 761/3/6
f 761/3/6 760/3/6 762/3/6
